<svg width="47" height="47" viewBox="0 0 47 47" fill="none" xmlns="http://www.w3.org/2000/svg">
<path d="M20.2078 6.50806L22.2023 4.51353C23.0468 3.66899 24.4125 3.66899 25.248 4.51353L42.7136 21.9702C43.5582 22.8147 43.5582 24.1803 42.7136 25.0159L25.248 42.4815C24.4035 43.326 23.0378 43.326 22.2023 42.4815L20.2078 40.487C19.3542 39.6334 19.3722 38.2409 20.2437 37.4053L31.0699 27.0913H5.24878C4.05386 27.0913 3.09253 26.1299 3.09253 24.935V22.06C3.09253 20.8651 4.05386 19.9038 5.24878 19.9038H31.0699L20.2437 9.5897C19.3632 8.75415 19.3453 7.36157 20.2078 6.50806Z" fill="black"/>
</svg>
