<svg width="34" height="34" viewBox="0 0 34 34" fill="none" xmlns="http://www.w3.org/2000/svg">
<g clip-path="url(#clip0_44_2)">
<path d="M11.3345 23.6711C10.7744 23.111 11.0664 23.2689 9.71546 22.9074C9.10251 22.743 8.56368 22.4272 8.07642 22.0488L5.15218 29.2186C4.86923 29.9128 5.39774 30.6669 6.14669 30.6385L9.54272 30.509L11.8785 32.9762C12.3941 33.5202 13.2991 33.3507 13.582 32.6565L16.9368 24.431C16.2381 24.8203 15.4627 25.0485 14.6609 25.0485C13.4041 25.0485 12.2233 24.5593 11.3345 23.6711V23.6711ZM29.7475 29.2186L26.8233 22.0488C26.336 22.4278 25.7972 22.743 25.1842 22.9074C23.8262 23.2709 24.124 23.1123 23.5651 23.6711C22.6763 24.5593 21.4949 25.0485 20.2381 25.0485C19.4363 25.0485 18.6609 24.8197 17.9622 24.431L21.317 32.6565C21.6 33.3507 22.5055 33.5202 23.0205 32.9762L25.3569 30.509L28.753 30.6385C29.5019 30.6669 30.0304 29.9121 29.7475 29.2186V29.2186ZM22.026 22.2126C23.0109 21.2103 23.1236 21.2967 24.5261 20.9145C25.4214 20.6702 26.1214 19.958 26.3611 19.0466C26.8432 17.2161 26.7182 17.4372 28.0337 16.0979C28.6892 15.4308 28.9451 14.4582 28.7053 13.5468C28.2238 11.7177 28.2232 11.9729 28.7053 10.1418C28.9451 9.23041 28.6892 8.25781 28.0337 7.59072C26.7182 6.25138 26.8432 6.47181 26.3611 4.64199C26.1214 3.73062 25.4214 3.01842 24.5261 2.77414C22.7292 2.28365 22.9458 2.41191 21.629 1.07193C20.9735 0.404841 20.0176 0.143806 19.1224 0.388083C17.3261 0.877927 17.5768 0.878571 15.7773 0.388083C14.882 0.143806 13.9262 0.404196 13.2707 1.07193C11.9552 2.41127 12.1718 2.28365 10.3742 2.77414C9.47892 3.01842 8.77896 3.73062 8.53919 4.64199C8.05773 6.47181 8.18212 6.25138 6.86663 7.59072C6.21114 8.25781 5.95462 9.23041 6.19503 10.1418C6.67649 11.9697 6.67714 11.7144 6.19503 13.5462C5.95526 14.4576 6.21114 15.4302 6.86663 16.0979C8.18212 17.4372 8.05708 17.2161 8.53919 19.0466C8.77896 19.958 9.47892 20.6702 10.3742 20.9145C11.8166 21.3076 11.9243 21.2458 12.8737 22.2126C13.7264 23.0807 15.0548 23.2361 16.0796 22.5877C16.4894 22.3275 16.9647 22.1894 17.4502 22.1894C17.9356 22.1894 18.411 22.3275 18.8208 22.5877C19.8449 23.2361 21.1733 23.0807 22.026 22.2126ZM11.3693 11.6397C11.3693 8.22172 14.0918 5.45088 17.4498 5.45088C20.8078 5.45088 23.5303 8.22172 23.5303 11.6397C23.5303 15.0576 20.8078 17.8285 17.4498 17.8285C14.0918 17.8285 11.3693 15.0576 11.3693 11.6397V11.6397Z" fill="white"/>
</g>
<defs>
<clipPath id="clip0_44_2">
<rect width="33" height="33" fill="white" transform="translate(0.949707 0.298462)"/>
</clipPath>
</defs>
</svg>
