<svg width="33" height="35" viewBox="0 0 33 35" fill="none" xmlns="http://www.w3.org/2000/svg">
<path d="M32.5785 21.3782L29.6178 19.6685C29.9167 18.0561 29.9167 16.402 29.6178 14.7896L32.5785 13.0799C32.919 12.8853 33.0719 12.4822 32.9607 12.1069C32.1893 9.63275 30.8758 7.39485 29.1591 5.53226C28.895 5.24731 28.4641 5.17781 28.1305 5.37241L25.1698 7.0821C23.9258 6.01181 22.4941 5.18476 20.9442 4.64266V1.23021C20.9442 0.841014 20.6732 0.500464 20.2909 0.417064C17.7403 -0.152835 15.1271 -0.125035 12.7015 0.417064C12.3193 0.500464 12.0482 0.841014 12.0482 1.23021V4.64961C10.5053 5.19866 9.07364 6.02571 7.82264 7.08905L4.86889 5.37936C4.52834 5.18476 4.10439 5.24731 3.84029 5.53921C2.12365 7.39485 0.810099 9.63275 0.0386502 12.1139C-0.0794996 12.4892 0.0803502 12.8923 0.4209 13.0869L3.38159 14.7966C3.08275 16.409 3.08275 18.0631 3.38159 19.6755L0.4209 21.3852C0.0803502 21.5798 -0.0725496 21.9829 0.0386502 22.3582C0.810099 24.8324 2.12365 27.0703 3.84029 28.9329C4.10439 29.2178 4.53529 29.2873 4.86889 29.0927L7.82959 27.383C9.07364 28.4533 10.5053 29.2804 12.0552 29.8225V33.2419C12.0552 33.6311 12.3262 33.9716 12.7085 34.055C15.2591 34.6249 17.8723 34.5971 20.2979 34.055C20.6801 33.9716 20.9512 33.6311 20.9512 33.2419V29.8225C22.4941 29.2734 23.9258 28.4464 25.1768 27.383L28.1375 29.0927C28.478 29.2873 28.902 29.2248 29.1661 28.9329C30.8827 27.0772 32.1962 24.8393 32.9677 22.3582C33.0719 21.9759 32.919 21.5728 32.5785 21.3782V21.3782ZM16.4962 22.7891C13.4313 22.7891 10.9362 20.294 10.9362 17.2291C10.9362 14.1641 13.4313 11.6691 16.4962 11.6691C19.5612 11.6691 22.0562 14.1641 22.0562 17.2291C22.0562 20.294 19.5612 22.7891 16.4962 22.7891Z" fill="white"/>
</svg>
