<svg width="33" height="33" viewBox="0 0 33 33" fill="none" xmlns="http://www.w3.org/2000/svg">
<path d="M0.945067 23.5714H20.2692C20.3934 23.5715 20.5163 23.5471 20.631 23.4997C20.7457 23.4522 20.8499 23.3826 20.9377 23.2948C21.0255 23.2071 21.0951 23.1028 21.1425 22.9881C21.19 22.8734 21.2144 22.7505 21.2143 22.6264V19.8022C21.2144 19.6781 21.19 19.5551 21.1425 19.4404C21.0951 19.3257 21.0255 19.2215 20.9377 19.1337C20.8499 19.046 20.7457 18.9763 20.631 18.9289C20.5163 18.8814 20.3934 18.857 20.2692 18.8571H0.945067C0.820932 18.857 0.697996 18.8814 0.583291 18.9289C0.468587 18.9763 0.364365 19.046 0.276588 19.1337C0.188811 19.2215 0.119202 19.3257 0.0717419 19.4404C0.0242822 19.5551 -9.65796e-05 19.6781 2.87539e-07 19.8022V22.6264C-9.65796e-05 22.7505 0.0242822 22.8734 0.0717419 22.9881C0.119202 23.1028 0.188811 23.2071 0.276588 23.2948C0.364365 23.3826 0.468587 23.4522 0.583291 23.4997C0.697996 23.5471 0.820932 23.5715 0.945067 23.5714V23.5714ZM0.945067 4.71429H20.2692C20.3934 4.71438 20.5163 4.69 20.631 4.64254C20.7457 4.59508 20.8499 4.52548 20.9377 4.4377C21.0255 4.34992 21.0951 4.2457 21.1425 4.131C21.19 4.01629 21.2144 3.89335 21.2143 3.76922V0.945067C21.2144 0.820932 21.19 0.697996 21.1425 0.583291C21.0951 0.468587 21.0255 0.364365 20.9377 0.276588C20.8499 0.188811 20.7457 0.119202 20.631 0.0717418C20.5163 0.0242821 20.3934 -9.65796e-05 20.2692 2.8754e-07H0.945067C0.820932 -9.65796e-05 0.697996 0.0242821 0.583291 0.0717418C0.468587 0.119202 0.364365 0.188811 0.276588 0.276588C0.188811 0.364365 0.119202 0.468587 0.0717419 0.583291C0.0242822 0.697996 -9.65796e-05 0.820932 2.87539e-07 0.945067V3.76922C-9.65796e-05 3.89335 0.0242822 4.01629 0.0717419 4.131C0.119202 4.2457 0.188811 4.34992 0.276588 4.4377C0.364365 4.52548 0.468587 4.59508 0.583291 4.64254C0.697996 4.69 0.820932 4.71438 0.945067 4.71429V4.71429ZM31.8214 9.42857H1.17857C0.865995 9.42857 0.566221 9.55274 0.345196 9.77377C0.124171 9.99479 2.87539e-07 10.2946 2.87539e-07 10.6071V12.9643C2.87539e-07 13.2769 0.124171 13.5766 0.345196 13.7977C0.566221 14.0187 0.865995 14.1429 1.17857 14.1429H31.8214C32.134 14.1429 32.4338 14.0187 32.6548 13.7977C32.8758 13.5766 33 13.2769 33 12.9643V10.6071C33 10.2946 32.8758 9.99479 32.6548 9.77377C32.4338 9.55274 32.134 9.42857 31.8214 9.42857ZM31.8214 28.2857H1.17857C0.865995 28.2857 0.566221 28.4099 0.345196 28.6309C0.124171 28.8519 2.87539e-07 29.1517 2.87539e-07 29.4643V31.8214C2.87539e-07 32.134 0.124171 32.4338 0.345196 32.6548C0.566221 32.8758 0.865995 33 1.17857 33H31.8214C32.134 33 32.4338 32.8758 32.6548 32.6548C32.8758 32.4338 33 32.134 33 31.8214V29.4643C33 29.1517 32.8758 28.8519 32.6548 28.6309C32.4338 28.4099 32.134 28.2857 31.8214 28.2857Z" fill="white"/>
</svg>
