<svg width="33" height="33" viewBox="0 0 33 33" fill="none" xmlns="http://www.w3.org/2000/svg">
<path d="M11.0377 26.5716C11.0377 26.708 10.8847 26.8172 10.6917 26.8172C10.4722 26.8377 10.3192 26.7285 10.3192 26.5716C10.3192 26.4351 10.4722 26.3259 10.6651 26.3259C10.8647 26.3054 11.0377 26.4146 11.0377 26.5716ZM8.96855 26.2645C8.92198 26.401 9.05504 26.5579 9.25464 26.5988C9.42762 26.6671 9.62722 26.5988 9.66714 26.4624C9.70706 26.3259 9.58065 26.169 9.38105 26.1075C9.20807 26.0598 9.01512 26.128 8.96855 26.2645ZM11.9093 26.1485C11.7163 26.1962 11.5833 26.3259 11.6032 26.4828C11.6232 26.6193 11.7962 26.708 11.9958 26.6603C12.1887 26.6125 12.3218 26.4828 12.3018 26.3464C12.2819 26.2167 12.1022 26.128 11.9093 26.1485ZM16.2871 0C7.05907 0 0 7.18537 0 16.6499C0 24.2174 4.64395 30.6931 11.2772 32.9722C12.1288 33.1291 12.4282 32.5901 12.4282 32.1465C12.4282 31.7235 12.4083 29.3897 12.4083 27.9568C12.4083 27.9568 7.75101 28.9803 6.77298 25.9233C6.77298 25.9233 6.01452 23.9376 4.92339 23.4258C4.92339 23.4258 3.3998 22.3545 5.02984 22.375C5.02984 22.375 6.68649 22.5114 7.59798 24.1355C9.05504 26.7694 11.4968 26.012 12.4482 25.5616C12.6012 24.4698 13.0337 23.7124 13.5127 23.262C9.79355 22.839 6.04113 22.2863 6.04113 15.7218C6.04113 13.8453 6.54677 12.9036 7.61129 11.7027C7.43831 11.2591 6.87278 9.43038 7.78427 7.06937C9.1748 6.62583 12.375 8.91177 12.375 8.91177C13.7056 8.52965 15.1361 8.33176 16.5532 8.33176C17.9704 8.33176 19.4008 8.52965 20.7315 8.91177C20.7315 8.91177 23.9317 6.619 25.3222 7.06937C26.2337 9.4372 25.6681 11.2591 25.4952 11.7027C26.5597 12.9105 27.2117 13.8521 27.2117 15.7218C27.2117 22.3067 23.2929 22.8322 19.5738 23.262C20.1859 23.8011 20.7048 24.8247 20.7048 26.4283C20.7048 28.7278 20.6849 31.5733 20.6849 32.1329C20.6849 32.5764 20.9909 33.1155 21.8359 32.9585C28.4891 30.6931 33 24.2174 33 16.6499C33 7.18537 25.5151 0 16.2871 0ZM6.46694 23.535C6.38044 23.6032 6.4004 23.7602 6.51351 23.8898C6.61996 23.999 6.77298 24.0468 6.85948 23.9581C6.94597 23.8898 6.92601 23.7329 6.8129 23.6032C6.70645 23.4941 6.55343 23.4463 6.46694 23.535ZM5.74839 22.9823C5.70181 23.071 5.76835 23.1802 5.90141 23.2484C6.00786 23.3166 6.14093 23.2962 6.1875 23.2006C6.23407 23.1119 6.16754 23.0027 6.03448 22.9345C5.90141 22.8936 5.79496 22.914 5.74839 22.9823ZM7.90403 25.4115C7.79758 25.5002 7.8375 25.7049 7.99052 25.8346C8.14355 25.9915 8.33649 26.012 8.42298 25.9028C8.50948 25.8141 8.46956 25.6094 8.33649 25.4798C8.19012 25.3228 7.99052 25.3023 7.90403 25.4115ZM7.14557 24.4084C7.03911 24.4767 7.03911 24.6541 7.14557 24.811C7.25202 24.968 7.43165 25.0362 7.51815 24.968C7.6246 24.8793 7.6246 24.7019 7.51815 24.5449C7.425 24.388 7.25202 24.3197 7.14557 24.4084Z" fill="white"/>
</svg>
