<svg width="33" height="33" viewBox="0 0 33 33" fill="none" xmlns="http://www.w3.org/2000/svg">
<g clip-path="url(#clip0_158_4)">
<path d="M32.7375 11.286C23.6022 2.8364 9.39413 2.8395 0.262409 11.286C-0.080997 11.6036 -0.0877001 12.1414 0.244362 12.4709L2.00986 14.2224C2.32646 14.537 2.83589 14.5437 3.16486 14.242C10.6889 7.34915 22.31 7.34761 29.8356 14.242C30.1645 14.5437 30.674 14.5365 30.9906 14.2224L32.7561 12.4709C33.0876 12.1414 33.0809 11.6036 32.7375 11.286ZM16.5 21.45C14.6772 21.45 13.2 22.9272 13.2 24.75C13.2 26.5727 14.6772 28.05 16.5 28.05C18.3227 28.05 19.8 26.5727 19.8 24.75C19.8 22.9272 18.3227 21.45 16.5 21.45ZM26.9501 17.1398C21.007 11.8841 11.9862 11.8897 6.04978 17.1398C5.694 17.4544 5.68266 18.0004 6.02039 18.3335L7.79621 20.0861C8.10558 20.3914 8.60367 20.412 8.93316 20.1274C13.2618 16.3855 19.7479 16.3937 24.0662 20.1274C24.3957 20.412 24.8938 20.3919 25.2032 20.0861L26.979 18.3335C27.3172 18.0004 27.3054 17.4539 26.9501 17.1398V17.1398Z" fill="white"/>
</g>
<defs>
<clipPath id="clip0_158_4">
<rect width="33" height="33" fill="white"/>
</clipPath>
</defs>
</svg>
