<svg width="162" height="162" viewBox="0 0 162 162" fill="none" xmlns="http://www.w3.org/2000/svg">
<path d="M139.377 28.002L122.924 44.4551L131.309 52.8398C134.283 55.8141 134.283 60.6234 131.309 63.566L125.803 69.0715C129.537 77.3297 131.625 86.5055 131.625 96.1559C131.625 132.511 102.168 161.968 65.8125 161.968C29.4574 161.968 0 132.543 0 96.1875C0 59.8324 29.4574 30.375 65.8125 30.375C75.4629 30.375 84.6387 32.4633 92.8969 36.1969L98.4023 30.6914C101.377 27.7172 106.186 27.7172 109.129 30.6914L117.513 39.0762L133.966 22.623L139.377 28.002ZM158.203 18.9844H150.609C148.521 18.9844 146.812 20.693 146.812 22.7813C146.812 24.8695 148.521 26.5781 150.609 26.5781H158.203C160.291 26.5781 162 24.8695 162 22.7813C162 20.693 160.291 18.9844 158.203 18.9844ZM139.219 0C137.13 0 135.422 1.70859 135.422 3.79688V11.3906C135.422 13.4789 137.13 15.1875 139.219 15.1875C141.307 15.1875 143.016 13.4789 143.016 11.3906V3.79688C143.016 1.70859 141.307 0 139.219 0ZM149.945 17.4023L155.324 12.0234C156.811 10.5363 156.811 8.13164 155.324 6.64453C153.837 5.15742 151.432 5.15742 149.945 6.64453L144.566 12.0234C143.079 13.5105 143.079 15.9152 144.566 17.4023C146.085 18.8895 148.489 18.8895 149.945 17.4023ZM128.493 17.4023C129.98 18.8895 132.384 18.8895 133.871 17.4023C135.359 15.9152 135.359 13.5105 133.871 12.0234L128.493 6.64453C127.005 5.15742 124.601 5.15742 123.114 6.64453C121.627 8.13164 121.627 10.5363 123.114 12.0234L128.493 17.4023ZM149.945 28.1602C148.458 26.673 146.053 26.673 144.566 28.1602C143.079 29.6473 143.079 32.052 144.566 33.5391L149.945 38.918C151.432 40.4051 153.837 40.4051 155.324 38.918C156.811 37.4309 156.811 35.0262 155.324 33.5391L149.945 28.1602ZM35.4375 86.0625C35.4375 74.8934 44.5184 65.8125 55.6875 65.8125C58.4719 65.8125 60.75 63.5344 60.75 60.75C60.75 57.9656 58.4719 55.6875 55.6875 55.6875C38.9496 55.6875 25.3125 69.3246 25.3125 86.0625C25.3125 88.8469 27.5906 91.125 30.375 91.125C33.1594 91.125 35.4375 88.8469 35.4375 86.0625Z" fill="white"/>
</svg>
