<svg width="162" height="162" viewBox="0 0 162 162" fill="none" xmlns="http://www.w3.org/2000/svg">
<path d="M81 2.53125C37.6523 2.53125 2.53125 37.6523 2.53125 81C2.53125 124.348 37.6523 159.469 81 159.469C124.348 159.469 159.469 124.348 159.469 81C159.469 37.6523 124.348 2.53125 81 2.53125ZM99.0668 113.305L71.1598 93.0234C70.1789 92.2957 69.6094 91.1566 69.6094 89.9543V36.7031C69.6094 34.6148 71.318 32.9062 73.4062 32.9062H88.5938C90.682 32.9062 92.3906 34.6148 92.3906 36.7031V80.2723L112.482 94.8902C114.191 96.1242 114.539 98.4973 113.305 100.206L104.382 112.482C103.148 114.159 100.775 114.539 99.0668 113.305Z" fill="white"/>
</svg>
