<svg width="162" height="162" viewBox="0 0 162 162" fill="none" xmlns="http://www.w3.org/2000/svg">
<path d="M158.203 70.875H148.596C144.194 41.2356 120.764 17.8061 91.125 13.4042V3.79688C91.125 1.70005 89.4249 0 87.3281 0H74.6719C72.5751 0 70.875 1.70005 70.875 3.79688V13.4042C41.2356 17.8061 17.8061 41.2356 13.4042 70.875H3.79688C1.70005 70.875 0 72.5751 0 74.6719V87.3281C0 89.4249 1.70005 91.125 3.79688 91.125H13.4042C17.8061 120.764 41.2356 144.194 70.875 148.596V158.203C70.875 160.3 72.5751 162 74.6719 162H87.3281C89.4249 162 91.125 160.3 91.125 158.203V148.596C120.764 144.194 144.194 120.764 148.596 91.125H158.203C160.3 91.125 162 89.4249 162 87.3281V74.6719C162 72.5751 160.3 70.875 158.203 70.875ZM91.125 128.029V115.172C91.125 113.075 89.4249 111.375 87.3281 111.375H74.6719C72.5751 111.375 70.875 113.075 70.875 115.172V128.029C52.4684 124.105 37.9001 109.553 33.9713 91.125H46.8281C48.9249 91.125 50.625 89.4249 50.625 87.3281V74.6719C50.625 72.5751 48.9249 70.875 46.8281 70.875H33.9713C37.8953 52.4684 52.4466 37.9001 70.875 33.9713V46.8281C70.875 48.9249 72.5751 50.625 74.6719 50.625H87.3281C89.4249 50.625 91.125 48.9249 91.125 46.8281V33.9713C109.532 37.8953 124.1 52.4466 128.029 70.875H115.172C113.075 70.875 111.375 72.5751 111.375 74.6719V87.3281C111.375 89.4249 113.075 91.125 115.172 91.125H128.029C124.105 109.532 109.553 124.1 91.125 128.029ZM91.125 81C91.125 86.5918 86.5918 91.125 81 91.125C75.4082 91.125 70.875 86.5918 70.875 81C70.875 75.4082 75.4082 70.875 81 70.875C86.5918 70.875 91.125 75.4082 91.125 81Z" fill="white"/>
</svg>
