<svg width="162" height="162" viewBox="0 0 162 162" fill="none" xmlns="http://www.w3.org/2000/svg">
<g clip-path="url(#clip0_146_48)">
<path d="M160.911 58.5225L140.763 24.224C138.535 20.4272 133.599 19.1362 129.752 21.3131L112.286 31.2103L127.398 56.9531C127.955 57.915 127.626 59.1047 126.664 59.6615L123.171 61.6359C122.209 62.1928 120.968 61.8637 120.411 60.9018L105.3 35.1843L91.3274 43.1072L98.3896 55.1053C98.9465 56.0672 98.6174 57.2568 97.6556 57.8137L94.1624 59.7881C93.2006 60.345 91.9602 60.0159 91.4034 59.054L84.3412 47.0812L70.3687 55.004L85.5056 80.7468C86.0624 81.6834 85.7334 82.8984 84.7715 83.4553L81.2784 85.4297C80.3165 85.9865 79.0762 85.6575 78.5193 84.6956L63.4077 58.9528L49.4352 66.8756L56.4974 78.8737C57.0543 79.8356 56.7252 81.0253 55.7634 81.5822L52.2702 83.5565C51.3084 84.1134 50.0681 83.7843 49.5112 82.8225L42.449 70.799L28.4765 78.7218L43.5881 104.465C44.1449 105.401 43.8159 106.616 42.854 107.173L39.3609 109.147C38.399 109.704 37.1587 109.375 36.6018 108.413L21.4902 82.7465L4.02461 92.6437C0.177111 94.8459 -1.16445 99.6806 1.06305 103.477L21.2118 137.801C23.4393 141.598 28.3752 142.889 32.2227 140.712L157.975 69.3562C161.823 67.1793 163.139 62.3193 160.911 58.5225Z" fill="white"/>
</g>
<defs>
<clipPath id="clip0_146_48">
<rect width="162" height="162" fill="white"/>
</clipPath>
</defs>
</svg>
